<svg viewBox="0 0 24 24" xmlns="http://www.w3.org/2000/svg" xmlns:xlink="http://www.w3.org/1999/xlink">
    <!-- Camera -->
    <path class="camera" d="M12 2C6.48 2 2 6.48 2 12s4.48 10 10 10 10-4.48 10-10S17.52 2 12 2zm-2 15.5v-6.4l6-2.3 6 2.3v6.4H10z"/>
    <!-- Microphone -->
    <path class="mic" d="M12 2C6.48 2 2 6.48 2 12s4.48 10 10 10 10-4.48 10-10S17.52 2 12 2zm-1 17.93h2v-6l7-4.37L22 16V8l-8-5.33z"/>
    <!-- Recording dot -->
    <circle class="recording-dot" cx="12" cy="12" r="2" fill="white" stroke="red" stroke-width="2" />
</svg>
